<svg id="sign" xmlns="http://www.w3.org/2000/svg" width="832.206" height="500.356" viewBox="0 0 832.206 500.356">
  <path id="Path_1" data-name="Path 1" d="M227.317,699.06c-.056-.245-5.44-24.8,5.556-45.19s34.468-29.385,34.7-29.474l1.073-.4.253,1.118c.056.245,5.44,24.8-5.556,45.19s-34.468,29.385-34.7,29.474l-1.073.4Zm39.862-72.338c-4.7,2.022-23.258,10.874-32.545,28.1s-6.486,37.594-5.592,42.631c4.7-2.018,23.249-10.856,32.545-28.1,9.287-17.224,6.485-37.591,5.591-42.631Z" transform="translate(-183.897 -199.822)" fill="#f1f1f1"/>
  <path id="Path_2" data-name="Path 2" d="M254.944,663.149c-19.761,11.889-27.371,35.5-27.371,35.5S252,702.99,271.761,691.1s27.371-35.5,27.371-35.5S274.7,651.26,254.944,663.149Z" transform="translate(-183.897 -199.822)" fill="#f1f1f1"/>
  <path id="Path_3" data-name="Path 3" d="M554.193,472.564a10.837,10.837,0,0,0-10.479-12.9l-9.151-23.012-15.341,2.15L532.6,471.121a10.9,10.9,0,0,0,21.592,1.443Z" transform="translate(-183.897 -199.822)" fill="#9f616a"/>
  <path id="Path_4" data-name="Path 4" d="M525.93,464.479l-4.753-11.335-29.621-56.385,1.611-104.332.309-.041c18.954-2.5,31.778,84.829,32.315,88.548l18.716,64.008,4.455,14.108Z" transform="translate(-183.897 -199.822)" fill="#6c63ff"/>
  <path id="Path_5" data-name="Path 5" d="M296.518,484.658h14.4l6.851-55.551H296.515Z" fill="#9f616a"/>
  <path id="Path_6" data-name="Path 6" d="M476.741,679.778h28.364a18.076,18.076,0,0,1,18.075,18.074v.588l-46.439,0Z" transform="translate(-183.897 -199.822)" fill="#2f2e41"/>
  <path id="Path_7" data-name="Path 7" d="M164.1,462.715l11.817,8.234,37.382-41.658-17.44-12.153Z" fill="#9f616a"/>
  <path id="Path_8" data-name="Path 8" d="M347.667,656.579l23.271,16.216h0a18.076,18.076,0,0,1,4.5,25.164l-.336.482L337,671.891Z" transform="translate(-183.897 -199.822)" fill="#2f2e41"/>
  <path id="Path_9" data-name="Path 9" d="M472.5,671.422l-.622-104.21-9.063-65.526L445.92,559.31l-.033.047-61.225,88.885-23.823-12.07.131-.31c1.456-3.463,35.762-84.794,44.983-84.794A4.98,4.98,0,0,0,410.2,549.2c2.706-3.614.5-11.283.48-11.36-2.64-10.946,4-14.674,5.319-15.3l3.556-73.4.369.025,96.39,6.761L512.264,547.7l-8.7,120.232-.3.034Z" transform="translate(-183.897 -199.822)" fill="#2f2e41"/>
  <path id="Path_10" data-name="Path 10" d="M517.781,472.2l-.417-.034L413.7,463.812l.256-34.3,5.074-89.558.029-.062,20.663-44.859,14.647-6.633,21.37-1.125.052.013,19.5,4.832L515.582,437.76Z" transform="translate(-183.897 -199.822)" fill="#6c63ff"/>
  <circle id="Ellipse_1" data-name="Ellipse 1" cx="27.294" cy="27.294" r="27.294" transform="translate(245.055 41.15) rotate(-28.663)" fill="#9f616a"/>
  <path id="Path_11" data-name="Path 11" d="M438.546,258.681V248.047s-8.576-10.1.858-12.645c0,0,2.573-25.443,24.87-13.57,0,0,30.873-5.089,27.443,12.721,0,0,7.718-4.65,5.146,7.224L491.887,260.9s2.4-12.634-5.315-14.33l-4.288-2.544s-12.006,11.873-30.016-2.544c0,0-7.718-1.842-6.861,5.791S438.546,258.681,438.546,258.681Z" transform="translate(-183.897 -199.822)" fill="#2f2e41"/>
  <path id="Path_12" data-name="Path 12" d="M463.154,446.587A10.837,10.837,0,0,0,450.53,435.78l-13.132-21-14.706,4.868,18.961,29.391a10.9,10.9,0,0,0,21.5-2.456Z" transform="translate(-183.897 -199.822)" fill="#9f616a"/>
  <path id="Path_13" data-name="Path 13" d="M429.236,439.969l-23.758-48.235.021-.117c.1-.534,9.659-53.634,16.973-73.152,7.36-19.642,17.435-23.585,17.861-23.743l.213-.079,9.034,8.665-12.514,83.527,13.489,40.284Z" transform="translate(-183.897 -199.822)" fill="#6c63ff"/>
  <rect id="Rectangle_1" data-name="Rectangle 1" width="46" height="46" transform="translate(786.206)" fill="#f1f1f1"/>
  <rect id="Rectangle_2" data-name="Rectangle 2" width="46" height="46" transform="translate(426.206 179)" fill="#f1f1f1"/>
  <path id="Path_14" data-name="Path 14" d="M635.922,404.665H999.6V220.556H635.922Z" transform="translate(-183.897 -199.822)" fill="#fff"/>
  <path id="Path_15" data-name="Path 15" d="M1002.6,407.665H632.922V217.556H1002.6Zm-363.675-6H996.6V223.556H638.922Z" transform="translate(-183.897 -199.822)" fill="#2f2e41"/>
  <rect id="Rectangle_3" data-name="Rectangle 3" width="279.806" height="9.279" transform="translate(495.678 85.316)" fill="#e5e5e5"/>
  <rect id="Rectangle_4" data-name="Rectangle 4" width="279.806" height="9.279" transform="translate(495.678 107.819)" fill="#e5e5e5"/>
  <rect id="Rectangle_5" data-name="Rectangle 5" width="52" height="8.053" transform="translate(723.484 141.045)" fill="#6c63ff"/>
  <path id="Path_16" data-name="Path 16" d="M565.9,700.138h-381a1,1,0,0,1,0-2h381a1,1,0,0,1,0,2Z" transform="translate(-183.897 -199.822)" fill="#cbcbcb"/>
</svg>
